<?xml version="1.0" encoding="UTF-8"?>
<svg xmlns="http://www.w3.org/2000/svg" xmlns:xlink="http://www.w3.org/1999/xlink" width="300px" height="111px" viewBox="0 0 64 24" version="1.1">
<g id="surface1">
<path style=" stroke:none;fill-rule:evenodd;fill:rgb(13.72549%,59.215686%,83.137255%);fill-opacity:1;" d="M 10.507812 4.382812 C 12.21875 4.382812 13.625 5.453125 13.625 6.726562 C 13.625 8 12.21875 9.070312 10.507812 9.070312 C 8.796875 9.070312 7.390625 8 7.390625 6.726562 C 7.441406 5.402344 8.796875 4.382812 10.507812 4.382812 "/>
<path style=" stroke:none;fill-rule:evenodd;fill:rgb(13.72549%,59.215686%,83.137255%);fill-opacity:1;" d="M 10.507812 11.667969 C 11.414062 11.667969 12.117188 12.230469 12.117188 12.890625 C 12.117188 13.554688 11.414062 14.113281 10.507812 14.113281 C 9.601562 14.113281 8.898438 13.554688 8.898438 12.890625 C 8.898438 12.179688 9.652344 11.667969 10.507812 11.667969 "/>
<path style=" stroke:none;fill-rule:evenodd;fill:rgb(13.72549%,59.215686%,83.137255%);fill-opacity:1;" d="M 10.507812 16.101562 C 11.058594 16.101562 11.511719 16.457031 11.511719 16.863281 C 11.511719 17.273438 11.058594 17.628906 10.507812 17.628906 C 9.953125 17.628906 9.503906 17.273438 9.503906 16.863281 C 9.503906 16.457031 9.953125 16.101562 10.507812 16.101562 "/>
<path style=" stroke:none;fill-rule:evenodd;fill:rgb(13.72549%,59.215686%,83.137255%);fill-opacity:1;" d="M 10.507812 18.597656 C 10.859375 18.597656 11.109375 18.800781 11.109375 19.054688 C 11.109375 19.308594 10.859375 19.515625 10.507812 19.515625 C 10.15625 19.515625 9.902344 19.308594 9.902344 19.054688 C 9.902344 18.800781 10.207031 18.597656 10.507812 18.597656 "/>
<path style=" stroke:none;fill-rule:evenodd;fill:rgb(53.72549%,74.117647%,23.921569%);fill-opacity:1;" d="M 4.675781 9.375 C 5.832031 9.835938 6.585938 10.804688 6.285156 11.515625 C 5.984375 12.230469 4.828125 12.433594 3.671875 11.921875 C 2.515625 11.464844 1.757812 10.496094 2.0625 9.785156 C 2.3125 9.070312 3.519531 8.917969 4.675781 9.375 "/>
<path style=" stroke:none;fill-rule:evenodd;fill:rgb(53.72549%,74.117647%,23.921569%);fill-opacity:1;" d="M 6.835938 14.472656 C 7.542969 14.777344 7.992188 15.335938 7.84375 15.695312 C 7.691406 16.050781 6.988281 16.101562 6.285156 15.796875 C 5.582031 15.488281 5.128906 14.929688 5.277344 14.574219 C 5.429688 14.164062 6.132812 14.164062 6.835938 14.472656 "/>
<path style=" stroke:none;fill-rule:evenodd;fill:rgb(53.72549%,74.117647%,23.921569%);fill-opacity:1;" d="M 8.394531 17.730469 C 8.847656 17.933594 9 18.292969 8.898438 18.496094 C 8.796875 18.75 8.394531 18.75 7.945312 18.597656 C 7.492188 18.394531 7.289062 18.035156 7.390625 17.832031 C 7.492188 17.578125 7.945312 17.527344 8.394531 17.730469 "/>
<path style=" stroke:none;fill-rule:evenodd;fill:rgb(53.72549%,74.117647%,23.921569%);fill-opacity:1;" d="M 16.390625 9.375 C 15.234375 9.835938 14.480469 10.804688 14.78125 11.515625 C 15.082031 12.230469 16.238281 12.433594 17.394531 11.921875 C 18.550781 11.464844 19.304688 10.496094 19.003906 9.785156 C 18.753906 9.070312 17.546875 8.917969 16.390625 9.375 "/>
<path style=" stroke:none;fill-rule:evenodd;fill:rgb(53.72549%,74.117647%,23.921569%);fill-opacity:1;" d="M 14.226562 14.472656 C 13.523438 14.777344 13.070312 15.335938 13.222656 15.695312 C 13.375 16.050781 14.078125 16.101562 14.78125 15.796875 C 15.484375 15.488281 15.9375 14.929688 15.785156 14.574219 C 15.636719 14.164062 14.933594 14.164062 14.226562 14.472656 "/>
<path style=" stroke:none;fill-rule:evenodd;fill:rgb(53.72549%,74.117647%,23.921569%);fill-opacity:1;" d="M 12.71875 17.730469 C 12.265625 17.933594 12.117188 18.292969 12.21875 18.496094 C 12.316406 18.75 12.71875 18.75 13.171875 18.597656 C 13.625 18.394531 13.824219 18.035156 13.726562 17.832031 C 13.574219 17.578125 13.121094 17.527344 12.71875 17.730469 "/>
<path style=" stroke:none;fill-rule:evenodd;fill:rgb(0%,0%,0%);fill-opacity:1;" d="M 25.085938 10.191406 L 21.96875 14.980469 L 25.035156 14.980469 Z M 24.988281 19.464844 L 26.144531 19.464844 L 26.144531 8.253906 L 25.289062 8.253906 L 17.796875 19.464844 L 19.003906 19.464844 L 21.316406 16.050781 L 24.9375 16.050781 C 24.988281 16.050781 24.988281 19.464844 24.988281 19.464844 Z M 24.988281 19.464844 "/>
<path style=" stroke:none;fill-rule:evenodd;fill:rgb(0%,0%,0%);fill-opacity:1;" d="M 29.359375 14.523438 L 32.527344 14.523438 C 33.484375 14.523438 34.289062 15.335938 34.289062 16.304688 L 34.289062 16.507812 C 34.289062 17.476562 33.484375 18.292969 32.527344 18.292969 L 29.359375 18.292969 Z M 29.359375 9.785156 L 32.226562 9.785156 C 33.132812 9.785156 33.886719 10.546875 33.886719 11.464844 C 33.886719 12.382812 33.132812 13.144531 32.226562 13.144531 L 29.359375 13.144531 Z M 31.773438 8.5625 L 32.476562 8.5625 C 33.984375 8.5625 35.191406 9.785156 35.191406 11.3125 C 35.191406 12.332031 34.640625 13.25 33.785156 13.707031 C 36.902344 14.878906 35.945312 19.566406 32.679688 19.566406 L 28.003906 19.566406 L 28.003906 8.5625 Z M 31.773438 8.5625 "/>
<path style=" stroke:none;fill-rule:evenodd;fill:rgb(53.72549%,74.117647%,23.921569%);fill-opacity:1;" d="M 29.359375 9.785156 L 32.226562 9.785156 C 33.132812 9.785156 33.886719 10.546875 33.886719 11.464844 C 33.886719 12.382812 33.132812 13.144531 32.226562 13.144531 L 29.359375 13.144531 Z M 29.359375 9.785156 "/>
<path style=" stroke:none;fill-rule:evenodd;fill:rgb(14.117647%,58.431373%,82.745098%);fill-opacity:1;" d="M 29.359375 14.523438 L 32.527344 14.523438 C 33.484375 14.523438 34.289062 15.335938 34.289062 16.304688 L 34.289062 16.507812 C 34.289062 17.476562 33.484375 18.292969 32.527344 18.292969 L 29.359375 18.292969 Z M 29.359375 14.523438 "/>
<path style=" stroke:none;fill-rule:nonzero;fill:rgb(0%,0%,0%);fill-opacity:1;" d="M 36.347656 19.667969 L 36.347656 12.941406 L 39.515625 12.941406 C 40.167969 12.941406 40.621094 12.992188 40.972656 13.144531 C 41.324219 13.25 41.578125 13.503906 41.777344 13.808594 C 41.980469 14.113281 42.082031 14.472656 42.082031 14.828125 C 42.082031 15.285156 41.929688 15.695312 41.578125 16.050781 C 41.226562 16.355469 40.722656 16.558594 40.070312 16.660156 C 40.320312 16.761719 40.523438 16.863281 40.621094 17.019531 C 40.921875 17.273438 41.175781 17.578125 41.425781 17.933594 L 42.683594 19.769531 L 41.476562 19.769531 L 40.523438 18.394531 C 40.21875 17.984375 40.019531 17.679688 39.816406 17.476562 C 39.617188 17.273438 39.464844 17.121094 39.316406 17.019531 C 39.164062 16.917969 39.011719 16.863281 38.863281 16.8125 C 38.761719 16.8125 38.5625 16.761719 38.359375 16.761719 L 37.253906 16.761719 L 37.253906 19.769531 L 36.347656 19.769531 Z M 37.304688 15.898438 L 39.367188 15.898438 C 39.816406 15.898438 40.121094 15.847656 40.371094 15.796875 C 40.621094 15.746094 40.824219 15.589844 40.921875 15.386719 C 41.074219 15.183594 41.125 14.980469 41.125 14.777344 C 41.125 14.472656 41.023438 14.214844 40.773438 14.011719 C 40.523438 13.808594 40.121094 13.707031 39.617188 13.707031 L 37.355469 13.707031 L 37.355469 15.898438 Z M 37.304688 15.898438 "/>
<path style=" stroke:none;fill-rule:nonzero;fill:rgb(0%,0%,0%);fill-opacity:1;" d="M 43.589844 19.667969 L 43.589844 12.941406 L 48.765625 12.941406 L 48.765625 13.757812 L 44.542969 13.757812 L 44.542969 15.796875 L 48.515625 15.796875 L 48.515625 16.558594 L 44.542969 16.558594 L 44.542969 18.851562 L 48.917969 18.851562 L 48.917969 19.667969 Z M 43.589844 19.667969 "/>
<path style=" stroke:none;fill-rule:nonzero;fill:rgb(0%,0%,0%);fill-opacity:1;" d="M 50.273438 19.667969 L 50.273438 12.941406 L 55.453125 12.941406 L 55.453125 13.757812 L 51.230469 13.757812 L 51.230469 15.796875 L 55.203125 15.796875 L 55.203125 16.558594 L 51.230469 16.558594 L 51.230469 18.851562 L 55.605469 18.851562 L 55.605469 19.667969 Z M 50.273438 19.667969 "/>
<path style=" stroke:none;fill-rule:nonzero;fill:rgb(0%,0%,0%);fill-opacity:1;" d="M 56.359375 19.667969 L 56.359375 18.851562 L 60.027344 14.574219 C 60.28125 14.265625 60.53125 14.011719 60.78125 13.757812 L 56.761719 13.757812 L 56.761719 12.941406 L 61.886719 12.941406 L 61.886719 13.757812 L 57.867188 18.394531 L 57.414062 18.851562 L 61.988281 18.851562 L 61.988281 19.667969 Z M 56.359375 19.667969 "/>
<path style=" stroke:none;fill-rule:nonzero;fill:rgb(0%,0%,0%);fill-opacity:1;" d="M 36.5 12.230469 L 61.839844 12.230469 L 61.839844 12.484375 L 36.5 12.484375 Z M 36.5 12.230469 "/>
<path style=" stroke:none;fill-rule:nonzero;fill:rgb(0%,0%,0%);fill-opacity:1;" d="M 38.609375 10.292969 L 38.609375 9.632812 L 40.269531 9.632812 L 40.269531 11.160156 C 40.121094 11.3125 39.867188 11.464844 39.566406 11.566406 C 39.265625 11.667969 38.964844 11.769531 38.609375 11.769531 C 38.207031 11.769531 37.855469 11.667969 37.554688 11.515625 C 37.253906 11.363281 37.050781 11.109375 36.902344 10.804688 C 36.75 10.496094 36.699219 10.140625 36.699219 9.785156 C 36.699219 9.375 36.800781 9.019531 36.953125 8.714844 C 37.101562 8.410156 37.355469 8.152344 37.707031 8 C 37.957031 7.847656 38.257812 7.796875 38.609375 7.796875 C 39.0625 7.796875 39.464844 7.898438 39.71875 8.101562 C 39.96875 8.304688 40.167969 8.5625 40.21875 8.917969 L 39.464844 9.070312 C 39.414062 8.867188 39.316406 8.714844 39.164062 8.613281 C 39.011719 8.511719 38.8125 8.460938 38.609375 8.460938 C 38.257812 8.460938 38.007812 8.5625 37.808594 8.765625 C 37.605469 8.96875 37.503906 9.324219 37.503906 9.734375 C 37.503906 10.191406 37.605469 10.546875 37.808594 10.75 C 38.007812 11.007812 38.257812 11.109375 38.609375 11.109375 C 38.761719 11.109375 38.914062 11.058594 39.113281 11.007812 C 39.265625 10.957031 39.414062 10.855469 39.515625 10.75 L 39.515625 10.242188 L 38.609375 10.242188 Z M 38.609375 10.292969 "/>
<path style=" stroke:none;fill-rule:nonzero;fill:rgb(0%,0%,0%);fill-opacity:1;" d="M 42.480469 11.71875 L 42.480469 7.847656 L 44.089844 7.847656 C 44.492188 7.847656 44.796875 7.898438 44.996094 7.949219 C 45.195312 8 45.347656 8.152344 45.449219 8.304688 C 45.550781 8.460938 45.597656 8.664062 45.597656 8.917969 C 45.597656 9.222656 45.5 9.425781 45.347656 9.632812 C 45.195312 9.835938 44.945312 9.9375 44.59375 9.988281 C 44.746094 10.089844 44.894531 10.191406 44.996094 10.292969 C 45.097656 10.394531 45.246094 10.597656 45.449219 10.90625 L 45.902344 11.667969 L 44.996094 11.667969 L 44.441406 10.804688 C 44.242188 10.496094 44.089844 10.292969 44.039062 10.242188 C 43.992188 10.140625 43.890625 10.089844 43.789062 10.089844 C 43.6875 10.039062 43.589844 10.039062 43.386719 10.039062 L 43.238281 10.039062 L 43.238281 11.71875 Z M 43.238281 9.476562 L 43.789062 9.476562 C 44.140625 9.476562 44.394531 9.476562 44.492188 9.425781 C 44.59375 9.375 44.644531 9.324219 44.695312 9.273438 C 44.746094 9.171875 44.796875 9.121094 44.796875 8.96875 C 44.796875 8.816406 44.746094 8.714844 44.695312 8.664062 C 44.644531 8.5625 44.542969 8.511719 44.394531 8.511719 C 44.34375 8.511719 44.140625 8.511719 43.839844 8.511719 L 43.238281 8.511719 Z M 43.238281 9.476562 "/>
<path style=" stroke:none;fill-rule:nonzero;fill:rgb(0%,0%,0%);fill-opacity:1;" d="M 47.660156 9.785156 C 47.660156 9.375 47.710938 9.070312 47.8125 8.816406 C 47.910156 8.613281 48.011719 8.460938 48.164062 8.304688 C 48.3125 8.152344 48.464844 8.050781 48.667969 7.949219 C 48.917969 7.847656 49.167969 7.796875 49.46875 7.796875 C 50.023438 7.796875 50.476562 7.949219 50.828125 8.304688 C 51.179688 8.664062 51.332031 9.171875 51.332031 9.785156 C 51.332031 10.394531 51.179688 10.90625 50.828125 11.261719 C 50.476562 11.617188 50.023438 11.769531 49.46875 11.769531 C 48.917969 11.769531 48.464844 11.617188 48.113281 11.261719 C 47.8125 10.90625 47.660156 10.394531 47.660156 9.785156 Z M 48.464844 9.785156 C 48.464844 10.242188 48.566406 10.546875 48.765625 10.804688 C 48.96875 11.007812 49.21875 11.160156 49.519531 11.160156 C 49.824219 11.160156 50.074219 11.058594 50.273438 10.804688 C 50.476562 10.597656 50.578125 10.242188 50.578125 9.785156 C 50.578125 9.324219 50.476562 9.019531 50.273438 8.816406 C 50.074219 8.613281 49.824219 8.511719 49.519531 8.511719 C 49.21875 8.511719 48.96875 8.613281 48.765625 8.816406 C 48.566406 8.96875 48.464844 9.324219 48.464844 9.785156 Z M 48.464844 9.785156 "/>
<path style=" stroke:none;fill-rule:nonzero;fill:rgb(0%,0%,0%);fill-opacity:1;" d="M 53.441406 7.847656 L 54.195312 7.847656 L 54.195312 9.9375 C 54.195312 10.292969 54.195312 10.496094 54.246094 10.597656 C 54.296875 10.75 54.347656 10.90625 54.496094 10.957031 C 54.597656 11.058594 54.800781 11.109375 55 11.109375 C 55.203125 11.109375 55.402344 11.058594 55.503906 10.957031 C 55.605469 10.855469 55.703125 10.75 55.703125 10.597656 C 55.703125 10.445312 55.753906 10.242188 55.753906 9.9375 L 55.753906 7.796875 L 56.507812 7.796875 L 56.507812 9.835938 C 56.507812 10.292969 56.507812 10.648438 56.457031 10.804688 C 56.410156 11.007812 56.359375 11.160156 56.207031 11.3125 C 56.105469 11.464844 55.957031 11.566406 55.753906 11.617188 C 55.554688 11.71875 55.300781 11.71875 55 11.71875 C 54.648438 11.71875 54.347656 11.667969 54.144531 11.566406 C 53.945312 11.464844 53.792969 11.363281 53.695312 11.210938 C 53.59375 11.058594 53.492188 10.957031 53.492188 10.804688 C 53.441406 10.597656 53.390625 10.242188 53.390625 9.835938 L 53.390625 7.847656 Z M 53.441406 7.847656 "/>
<path style=" stroke:none;fill-rule:nonzero;fill:rgb(0%,0%,0%);fill-opacity:1;" d="M 58.769531 11.71875 L 58.769531 7.847656 L 60.027344 7.847656 C 60.480469 7.847656 60.78125 7.847656 60.933594 7.898438 C 61.132812 7.949219 61.335938 8.101562 61.484375 8.253906 C 61.636719 8.460938 61.6875 8.714844 61.6875 9.019531 C 61.6875 9.273438 61.636719 9.476562 61.535156 9.632812 C 61.4375 9.785156 61.335938 9.9375 61.234375 9.988281 C 61.085938 10.089844 60.984375 10.140625 60.832031 10.191406 C 60.632812 10.242188 60.378906 10.242188 60.027344 10.242188 L 59.527344 10.242188 L 59.527344 11.71875 Z M 59.574219 8.460938 L 59.574219 9.582031 L 59.976562 9.582031 C 60.28125 9.582031 60.480469 9.582031 60.582031 9.527344 C 60.683594 9.476562 60.78125 9.425781 60.832031 9.324219 C 60.882812 9.222656 60.933594 9.121094 60.933594 9.019531 C 60.933594 8.867188 60.882812 8.765625 60.832031 8.664062 C 60.730469 8.5625 60.632812 8.511719 60.53125 8.511719 C 60.429688 8.511719 60.230469 8.460938 59.976562 8.460938 Z M 59.574219 8.460938 "/>
</g>
</svg>
